Normalized EMG Linear Envelopes
nRows=49
nColumns=17

endheader
time	        VM	        VL	        RF	       GRA	        TA	   ADDLONG	   SEMIMEM	      BFLH	        GM	        GL	       TFL	   GLUTMAX	   GLUTMED	      PIRI	    OBTINT	        QF	
3.154	  0.399472	  0.358303	  0.034077	  0.120095	  0.302715	  0.056486	  0.281939	  0.331276	  0.263908	  0.240448	  0.029080	  0.747802	  0.446209	  0.895290	  0.493234	  0.592658	
3.1545	  0.401993	  0.361230	  0.034388	  0.119849	  0.300274	  0.056566	  0.278135	  0.329997	  0.264530	  0.242725	  0.029534	  0.752549	  0.449873	  0.896441	  0.495480	  0.594852	
3.155	  0.404470	  0.364136	  0.034699	  0.119616	  0.297795	  0.056650	  0.274398	  0.328762	  0.265161	  0.245016	  0.029992	  0.757161	  0.453539	  0.897481	  0.497899	  0.596940	
3.1555	  0.406902	  0.367022	  0.035010	  0.119394	  0.295278	  0.056739	  0.270728	  0.327571	  0.265804	  0.247320	  0.030452	  0.761633	  0.457207	  0.898409	  0.500491	  0.598920	
3.156	  0.409286	  0.369884	  0.035321	  0.119184	  0.292726	  0.056833	  0.267126	  0.326425	  0.266456	  0.249638	  0.030914	  0.765962	  0.460876	  0.899222	  0.503257	  0.600791	
3.1565	  0.411621	  0.372723	  0.035632	  0.118986	  0.290140	  0.056932	  0.263594	  0.325324	  0.267118	  0.251969	  0.031378	  0.770144	  0.464545	  0.899919	  0.506197	  0.602553	
3.157	  0.413903	  0.375537	  0.035941	  0.118799	  0.287522	  0.057036	  0.260132	  0.324269	  0.267790	  0.254313	  0.031845	  0.774175	  0.468215	  0.900497	  0.509313	  0.604203	
3.1575	  0.416130	  0.378324	  0.036251	  0.118623	  0.284874	  0.057144	  0.256741	  0.323260	  0.268471	  0.256670	  0.032313	  0.778050	  0.471882	  0.900957	  0.512605	  0.605740	
3.158	  0.418301	  0.381084	  0.036560	  0.118459	  0.282198	  0.057257	  0.253422	  0.322297	  0.269162	  0.259040	  0.032784	  0.781766	  0.475548	  0.901298	  0.516073	  0.607162	
3.1585	  0.420413	  0.383816	  0.036868	  0.118306	  0.279496	  0.057375	  0.250175	  0.321382	  0.269861	  0.261422	  0.033255	  0.785318	  0.479210	  0.901519	  0.519717	  0.608468	
3.159	  0.422463	  0.386519	  0.037176	  0.118164	  0.276770	  0.057497	  0.247002	  0.320513	  0.270569	  0.263815	  0.033729	  0.788702	  0.482868	  0.901621	  0.523539	  0.609656	
3.1595	  0.424448	  0.389192	  0.037483	  0.118032	  0.274021	  0.057624	  0.243902	  0.319690	  0.271286	  0.266221	  0.034203	  0.791914	  0.486520	  0.901604	  0.527540	  0.610724	
3.16	  0.426367	  0.391834	  0.037790	  0.117912	  0.271253	  0.057755	  0.240877	  0.318915	  0.272011	  0.268637	  0.034678	  0.794952	  0.490166	  0.901470	  0.531719	  0.611671	
3.1605	  0.428216	  0.394445	  0.038095	  0.117802	  0.268467	  0.057890	  0.237927	  0.318186	  0.272744	  0.271064	  0.035155	  0.797811	  0.493803	  0.901221	  0.536078	  0.612493	
3.161	  0.429994	  0.397025	  0.038400	  0.117703	  0.265665	  0.058030	  0.235053	  0.317504	  0.273486	  0.273501	  0.035632	  0.800490	  0.497432	  0.900859	  0.540617	  0.613191	
3.1615	  0.431698	  0.399574	  0.038704	  0.117613	  0.262850	  0.058173	  0.232254	  0.316869	  0.274234	  0.275947	  0.036109	  0.802987	  0.501049	  0.900386	  0.545338	  0.613762	
3.162	  0.433326	  0.402091	  0.039007	  0.117534	  0.260023	  0.058321	  0.229531	  0.316280	  0.274989	  0.278403	  0.036587	  0.805299	  0.504653	  0.899803	  0.550241	  0.614205	
3.1625	  0.434875	  0.404575	  0.039309	  0.117465	  0.257187	  0.058473	  0.226885	  0.315738	  0.275751	  0.280867	  0.037064	  0.807425	  0.508243	  0.899114	  0.555327	  0.614521	
3.163	  0.436344	  0.407027	  0.039610	  0.117406	  0.254343	  0.058628	  0.224315	  0.315241	  0.276519	  0.283339	  0.037541	  0.809362	  0.511818	  0.898319	  0.560597	  0.614709	
3.1635	  0.437731	  0.409445	  0.039910	  0.117357	  0.251493	  0.058787	  0.221822	  0.314791	  0.277294	  0.285818	  0.038018	  0.811110	  0.515374	  0.897420	  0.566053	  0.614769	
3.164	  0.439034	  0.411830	  0.040208	  0.117317	  0.248640	  0.058949	  0.219406	  0.314385	  0.278074	  0.288304	  0.038495	  0.812665	  0.518911	  0.896420	  0.571694	  0.614700	
3.1645	  0.440253	  0.414179	  0.040505	  0.117288	  0.245784	  0.059114	  0.217066	  0.314025	  0.278860	  0.290797	  0.038970	  0.814026	  0.522427	  0.895319	  0.577523	  0.614504	
3.165	  0.441387	  0.416494	  0.040801	  0.117268	  0.242928	  0.059282	  0.214803	  0.313708	  0.279651	  0.293296	  0.039445	  0.815189	  0.525920	  0.894119	  0.583540	  0.614181	
3.1655	  0.442436	  0.418773	  0.041095	  0.117258	  0.240074	  0.059453	  0.212616	  0.313436	  0.280448	  0.295800	  0.039918	  0.816153	  0.529388	  0.892821	  0.589745	  0.613731	
3.166	  0.443397	  0.421017	  0.041388	  0.117257	  0.237222	  0.059627	  0.210505	  0.313207	  0.281250	  0.298309	  0.040390	  0.816914	  0.532828	  0.891426	  0.596139	  0.613156	
3.1665	  0.444273	  0.423225	  0.041679	  0.117267	  0.234374	  0.059803	  0.208471	  0.313021	  0.282057	  0.300822	  0.040860	  0.817470	  0.536240	  0.889933	  0.602723	  0.612456	
3.167	  0.445060	  0.425396	  0.041968	  0.117285	  0.231533	  0.059981	  0.206512	  0.312878	  0.282869	  0.303338	  0.041328	  0.817820	  0.539619	  0.888345	  0.609497	  0.611633	
3.1675	  0.445760	  0.427531	  0.042255	  0.117313	  0.228698	  0.060161	  0.204629	  0.312778	  0.283685	  0.305859	  0.041794	  0.817961	  0.542965	  0.886660	  0.616461	  0.610688	
3.168	  0.446372	  0.429631	  0.042541	  0.117350	  0.225873	  0.060343	  0.202821	  0.312721	  0.284506	  0.308382	  0.042258	  0.817891	  0.546273	  0.884880	  0.623614	  0.609621	
3.1685	  0.446895	  0.431693	  0.042824	  0.117396	  0.223057	  0.060526	  0.201087	  0.312707	  0.285330	  0.310907	  0.042720	  0.817611	  0.549543	  0.883004	  0.630958	  0.608434	
3.169	  0.447330	  0.433720	  0.043106	  0.117451	  0.220253	  0.060711	  0.199428	  0.312736	  0.286158	  0.313434	  0.043179	  0.817118	  0.552769	  0.881033	  0.638491	  0.607130	
3.1695	  0.447677	  0.435709	  0.043386	  0.117514	  0.217461	  0.060897	  0.197843	  0.312810	  0.286990	  0.315963	  0.043635	  0.816414	  0.555951	  0.878965	  0.646213	  0.605710	
3.17	  0.447935	  0.437661	  0.043663	  0.117586	  0.214683	  0.061084	  0.196332	  0.312928	  0.287825	  0.318493	  0.044088	  0.815499	  0.559084	  0.876802	  0.654124	  0.604175	
3.1705	  0.448105	  0.439576	  0.043938	  0.117666	  0.211921	  0.061271	  0.194893	  0.313093	  0.288664	  0.321023	  0.044538	  0.814374	  0.562166	  0.874544	  0.662223	  0.602529	
3.171	  0.448186	  0.441453	  0.044211	  0.117754	  0.209175	  0.061459	  0.193527	  0.313304	  0.289508	  0.323554	  0.044985	  0.813038	  0.565194	  0.872191	  0.670509	  0.600773	
3.1715	  0.448180	  0.443292	  0.044481	  0.117849	  0.206446	  0.061648	  0.192233	  0.313562	  0.290355	  0.326084	  0.045428	  0.811494	  0.568165	  0.869742	  0.678981	  0.598908	
3.172	  0.448086	  0.445093	  0.044748	  0.117952	  0.203736	  0.061836	  0.191009	  0.313869	  0.291207	  0.328613	  0.045868	  0.809743	  0.571076	  0.867199	  0.687638	  0.596937	
3.1725	  0.447905	  0.446856	  0.045013	  0.118062	  0.201045	  0.062025	  0.189856	  0.314226	  0.292064	  0.331140	  0.046304	  0.807784	  0.573923	  0.864562	  0.696480	  0.594862	
3.173	  0.447639	  0.448579	  0.045276	  0.118178	  0.198376	  0.062214	  0.188772	  0.314634	  0.292926	  0.333665	  0.046736	  0.805619	  0.576703	  0.861833	  0.705505	  0.592684	
3.1735	  0.447288	  0.450264	  0.045535	  0.118301	  0.195727	  0.062402	  0.187757	  0.315093	  0.293795	  0.336188	  0.047164	  0.803249	  0.579414	  0.859013	  0.714711	  0.590404	
3.174	  0.446851	  0.451910	  0.045792	  0.118431	  0.193101	  0.062590	  0.186810	  0.315606	  0.294671	  0.338707	  0.047588	  0.800673	  0.582052	  0.856103	  0.724098	  0.588024	
3.1745	  0.446332	  0.453516	  0.046047	  0.118567	  0.190499	  0.062778	  0.185930	  0.316172	  0.295555	  0.341223	  0.048008	  0.797894	  0.584613	  0.853107	  0.733664	  0.585547	
3.175	  0.445729	  0.455084	  0.046298	  0.118708	  0.187922	  0.062964	  0.185116	  0.316792	  0.296447	  0.343733	  0.048423	  0.794914	  0.587096	  0.850025	  0.743408	  0.582972	
3.1755	  0.445044	  0.456613	  0.046547	  0.118856	  0.185369	  0.063150	  0.184368	  0.317468	  0.297347	  0.346237	  0.048833	  0.791735	  0.589498	  0.846861	  0.753326	  0.580302	
3.176	  0.444280	  0.458105	  0.046793	  0.119008	  0.182843	  0.063334	  0.183684	  0.318201	  0.298258	  0.348734	  0.049239	  0.788361	  0.591817	  0.843617	  0.763419	  0.577537	
3.1765	  0.443437	  0.459559	  0.047036	  0.119167	  0.180343	  0.063517	  0.183063	  0.318990	  0.299178	  0.351223	  0.049640	  0.784795	  0.594050	  0.840296	  0.773685	  0.574679	
3.177	  0.442518	  0.460976	  0.047276	  0.119330	  0.177871	  0.063698	  0.182505	  0.319836	  0.300110	  0.353703	  0.050036	  0.781042	  0.596197	  0.836901	  0.784121	  0.571729	
3.1775	  0.441524	  0.462356	  0.047513	  0.119498	  0.175428	  0.063878	  0.182007	  0.320741	  0.301053	  0.356173	  0.050427	  0.777106	  0.598255	  0.833437	  0.794727	  0.568687	
3.178	  0.440459	  0.463700	  0.047746	  0.119671	  0.173013	  0.064055	  0.181570	  0.321704	  0.302007	  0.358632	  0.050813	  0.772993	  0.600222	  0.829905	  0.805500	  0.565554	
